<svg xmlns="http://www.w3.org/2000/svg" viewBox="0 0 519.05 408.37"><defs><style>.cls-1{fill:#fff;}</style></defs><g id="Camada_2" data-name="Camada 2"><g id="Camada_1-2" data-name="Camada 1"><path class="cls-1" d="M337.24,358.43c0,4.44,2.4,6.83,6.15,6.83,10.94,0,27.34-25.62,38.27-51.58C358.43,326.66,337.24,344.08,337.24,358.43Z"/><path class="cls-1" d="M519.05,75.56c0-25-18.24-43.79-42.42-43.79-28.61,0-53.7,27.81-53.7,59.51a46.14,46.14,0,0,0,6.79,24.51,35,35,0,0,0-21.34,20.92l-.29.81-.24.82c-.55,1.91-1.16,4.07-1.82,6.43-8.21-17.51-26.83-31-46.23-31-16.35,0-32,6.69-44.29,14a49.34,49.34,0,0,0-35-14c-16.35,0-31.89,6.6-43.68,13.5-8.49-6.76-17.67-10.08-27.72-10.08a34.45,34.45,0,0,0-19.13,5.7,247,247,0,0,1,7.77-29.18,165.86,165.86,0,0,0,27.76,2.42c21.91,0,39.61-13.48,50.6-24.79,6.47-6.67,21.54-23.86,21.54-39.5A32,32,0,0,0,265.51,0c-8.8,0-14.86,4-18.12,6.15-2.71,1.79-7.75,5.12-25.95,5.12-28.93,0-48.59-3-67.61-5.87C136.34,2.75,118.25,0,95,0,83.33,0,60.64,1.54,40.15,11.85,16,24,2.73,44.56,2.73,69.75c0,42.17,45,69.07,75.91,69.07a33.83,33.83,0,0,0,17.76-4.77c-5.92,20.87-12.69,42.17-21.24,59.47-6.81,13.8-17.43,30.25-29.32,30.25a22,22,0,0,1-4.16-.55,54.85,54.85,0,0,0-10.53-1.16C13.39,222.06,0,235.6,0,253.55c0,28.24,38.36,47.21,74.19,47.21,21.71,0,50.51-7.49,73.26-39.93,2.31,23.36,25.52,39.93,56.9,39.93,13.84,0,23-6.07,27.94-14.44,10.23,9,25.51,14.44,43.46,14.44,19.44,0,29.59-12,32-25.47a62.33,62.33,0,0,0,23.92,18.8c-3.14,1.94-6.22,4-9.2,6.05-22.95,16.14-34.11,32.75-34.11,50.77,0,16.65,9.09,32.52,24.95,43.55a79.11,79.11,0,0,0,44.12,13.91c23.25,0,43.39-12.38,59.88-36.8,9.5-14.09,17.05-30.75,24.05-47.55l1.14,0a7.58,7.58,0,0,1,3.54.62,37.12,37.12,0,0,0,12.85,2.45c10.07,0,19.47-5.27,26.49-14.83,3-4.12,8.08-12.51,8.08-22.47,0-13.56-10-27.27-29.1-30.22,5-14.76,9.82-29.61,14-43.05,14.73-47,14.73-54,14.73-58.26,0-8.57-4-16.94-12-25C502.74,125.77,519.05,102.38,519.05,75.56Zm-424.95.6c1.33-.76,4.48-1.9,9.82-1.9,4.48,0,8.81.2,12.93.54a141,141,0,0,0-9,20.06,42.15,42.15,0,0,0-8.6-11C95.41,80.16,94.29,78.8,94.1,76.16ZM74.19,275.76C46.52,275.76,25,262.09,25,253.55c0-4.44,2.73-6.49,6.15-6.49,4.44,0,8.2,1.71,14.69,1.71,46.12,0,66.28-76.87,81.31-132.21,14-51.59,38.94-55.35,38.94-55.35-10.59-5.46-34.84-12-62.17-12-20.5,0-34.85,10.24-34.85,26,0,20.84,16.74,27.33,16.74,32.11,0,4.44-2.39,6.49-7.17,6.49-18.11,0-50.91-17.08-50.91-44.07C27.73,34.57,68.39,25,95,25c45.44,0,68.33,11.27,126.41,11.27,35.18,0,39.28-11.27,44.07-11.27a6.93,6.93,0,0,1,7.17,6.83c0,6.49-22.89,39.29-47.14,39.29a141.72,141.72,0,0,1-39.63-5.81c-3.42,1.37-11.62,10.59-20.84,54.66C153.45,174.63,144.23,275.76,74.19,275.76Zm353.93,11.95c10.59-2.39,20.15-3.76,28.35-3.76,5.47,0,12,1.71,12,5.81s-5.47,12.3-9.57,12.3S452.37,299,442.47,299a71.21,71.21,0,0,0-19.13,3.07c-16.06,39.29-33.14,81.31-65.94,81.31-20.84,0-44.07-14.35-44.07-32.46,0-19.81,37.58-42,75.16-57.05,3.48-10.64,6.92-21.6,10.26-32.53-9.59,7.9-21.53,14.43-34.85,14.43-26,0-43.39-15.38-43.39-37.58,0-30.75,17.42-50.22,17.42-65.94,0-4.44-2.73-6.49-6.15-6.49-7.51,0-22.89,14.69-34.16,42.7-9.91,23.92-14.35,44.42-14.35,60.47,0,5.81-2.73,6.84-7.52,6.84-18.1,0-32.11-7.86-32.11-18.79,0-28.7,20.16-67.3,20.16-84,0-4.79-1.71-7.18-6.15-7.18-16.74,0-45.78,37.24-45.78,103.17,0,5.81-2.73,6.84-7.52,6.84-18.1,0-32.11-7.86-32.11-18.79,0-40,19.82-88.83,27.67-108.3a9.86,9.86,0,0,1,9.23-6.49c5.12,0,13.32,2,23.91,18.45,0,0,24.6-21.87,47.49-21.87,15,0,23.23,10.93,28,25.28,0,0,26.31-25.28,51.25-25.28,12.29,0,25.62,13,25.62,24.94,0,18.45-21.18,48.51-21.18,76.18,0,7.86,4.1,13,10.93,13,13.85,0,27.51-16.56,33.45-24.82,10.31-35.56,18.78-67.23,23.26-82.8a10.11,10.11,0,0,1,9.56-6.49c9.91,0,26.65,14.35,26.65,19.47C468.09,168.83,445.2,239.88,428.12,287.71Zm38.26-177c-9.91,0-18.45-7.18-18.45-19.47,0-17.43,13.67-34.51,28.7-34.51,9.91,0,17.42,7.52,17.42,18.79C494.05,93.67,481.07,110.75,466.38,110.75Z"/></g></g></svg>